<?xml version="1.0" encoding="UTF-8" standalone="no"?><!DOCTYPE svg PUBLIC "-//W3C//DTD SVG 1.1//EN" "http://www.w3.org/Graphics/SVG/1.1/DTD/svg11.dtd"><svg width="100%" height="100%" viewBox="0 0 1024 1024" version="1.1" xmlns="http://www.w3.org/2000/svg" xmlns:xlink="http://www.w3.org/1999/xlink" xml:space="preserve" xmlns:serif="http://www.serif.com/" style="fill-rule:evenodd;clip-rule:evenodd;stroke-linecap:round;stroke-linejoin:round;stroke-miterlimit:1.5;"><g><rect x="0" y="0" width="1024" height="1024" style="fill:#005fba;"/></g><g><g><rect x="349.386" y="412.413" width="324.676" height="513.81" style="fill:url(#_Radial1);stroke:#000;stroke-width:1.39px;"/><ellipse cx="505.398" cy="254.174" rx="168.664" ry="156.398" style="fill:url(#_Radial2);stroke:#000;stroke-width:1.39px;"/><path d="M346.232,466.25l-153.791,404.283c-3.661,9.624 -14.438,14.443 -24.051,10.755l-34.836,-13.365c-9.613,-3.688 -14.446,-14.496 -10.785,-24.119l153.791,-404.283c3.661,-9.624 14.438,-14.443 24.051,-10.755l34.836,13.365c9.613,3.688 14.446,14.496 10.785,24.119Z" style="fill:url(#_Radial3);stroke:#000;stroke-width:1.39px;"/><path d="M677.768,466.25l153.791,404.283c3.661,9.624 14.438,14.443 24.051,10.755l34.836,-13.365c9.613,-3.688 14.446,-14.496 10.785,-24.119l-153.791,-404.283c-3.661,-9.624 -14.438,-14.443 -24.051,-10.755l-34.836,13.365c-9.613,3.688 -14.446,14.496 -10.785,24.119Z" style="fill:url(#_Radial4);stroke:#000;stroke-width:1.39px;"/></g></g><defs><radialGradient id="_Radial1" cx="0" cy="0" r="1" gradientUnits="userSpaceOnUse" gradientTransform="matrix(311.981208,-0,0,313.305503,512.202228,533.591337)"><stop offset="0" style="stop-color:#fffa00;stop-opacity:1"/><stop offset="1" style="stop-color:#f00;stop-opacity:1"/></radialGradient><radialGradient id="_Radial2" cx="0" cy="0" r="1" gradientUnits="userSpaceOnUse" gradientTransform="matrix(311.981208,-0,0,313.305503,512.202228,533.591337)"><stop offset="0" style="stop-color:#fffa00;stop-opacity:1"/><stop offset="1" style="stop-color:#f00;stop-opacity:1"/></radialGradient><radialGradient id="_Radial3" cx="0" cy="0" r="1" gradientUnits="userSpaceOnUse" gradientTransform="matrix(311.981208,-0,0,313.305503,512.202228,533.591337)"><stop offset="0" style="stop-color:#fffa00;stop-opacity:1"/><stop offset="1" style="stop-color:#f00;stop-opacity:1"/></radialGradient><radialGradient id="_Radial4" cx="0" cy="0" r="1" gradientUnits="userSpaceOnUse" gradientTransform="matrix(311.981208,0,0,313.305503,512.202228,533.591337)"><stop offset="0" style="stop-color:#fffa00;stop-opacity:1"/><stop offset="1" style="stop-color:#f00;stop-opacity:1"/></radialGradient></defs></svg>