<?xml version="1.0" encoding="UTF-8" standalone="no"?><!DOCTYPE svg PUBLIC "-//W3C//DTD SVG 1.1//EN" "http://www.w3.org/Graphics/SVG/1.1/DTD/svg11.dtd"><svg width="100%" height="100%" viewBox="0 0 1024 1024" version="1.1" xmlns="http://www.w3.org/2000/svg" xmlns:xlink="http://www.w3.org/1999/xlink" xml:space="preserve" xmlns:serif="http://www.serif.com/" style="fill-rule:evenodd;clip-rule:evenodd;stroke-linecap:round;stroke-linejoin:round;stroke-miterlimit:1.5;"><g><g><rect x="311.002" y="388.906" width="401.315" height="635.094" style="fill:url(#_Radial1);stroke:#000;stroke-width:1.39px;"/><ellipse cx="503.84" cy="193.315" rx="208.476" ry="193.315" style="fill:url(#_Radial2);stroke:#000;stroke-width:1.39px;"/><path d="M307.103,455.451l-190.093,499.714c-4.525,11.895 -17.846,17.852 -29.729,13.293l-43.059,-16.519c-11.883,-4.559 -17.856,-17.917 -13.331,-29.813l190.093,-499.714c4.525,-11.895 17.846,-17.852 29.729,-13.293l43.059,16.519c11.883,4.559 17.856,17.917 13.331,29.813Z" style="fill:url(#_Radial3);stroke:#000;stroke-width:1.39px;"/><path d="M716.897,455.451l190.093,499.714c4.525,11.895 17.846,17.852 29.729,13.293l43.059,-16.519c11.883,-4.559 17.856,-17.917 13.331,-29.813l-190.093,-499.714c-4.525,-11.895 -17.846,-17.852 -29.729,-13.293l-43.059,16.519c-11.883,4.559 -17.856,17.917 -13.331,29.813Z" style="fill:url(#_Radial4);stroke:#000;stroke-width:1.39px;"/></g></g><defs><radialGradient id="_Radial1" cx="0" cy="0" r="1" gradientUnits="userSpaceOnUse" gradientTransform="matrix(385.623621,0,0,387.260514,512.249964,538.68792)"><stop offset="0" style="stop-color:#fffa00;stop-opacity:1"/><stop offset="1" style="stop-color:#f00;stop-opacity:1"/></radialGradient><radialGradient id="_Radial2" cx="0" cy="0" r="1" gradientUnits="userSpaceOnUse" gradientTransform="matrix(385.623621,0,0,387.260514,512.249964,538.68792)"><stop offset="0" style="stop-color:#fffa00;stop-opacity:1"/><stop offset="1" style="stop-color:#f00;stop-opacity:1"/></radialGradient><radialGradient id="_Radial3" cx="0" cy="0" r="1" gradientUnits="userSpaceOnUse" gradientTransform="matrix(385.623621,0,0,387.260514,512.249964,538.68792)"><stop offset="0" style="stop-color:#fffa00;stop-opacity:1"/><stop offset="1" style="stop-color:#f00;stop-opacity:1"/></radialGradient><radialGradient id="_Radial4" cx="0" cy="0" r="1" gradientUnits="userSpaceOnUse" gradientTransform="matrix(385.623621,0,0,387.260514,512.249964,538.68792)"><stop offset="0" style="stop-color:#fffa00;stop-opacity:1"/><stop offset="1" style="stop-color:#f00;stop-opacity:1"/></radialGradient></defs></svg>